<svg width="787" height="265" viewBox="0 0 787 265" fill="none" xmlns="http://www.w3.org/2000/svg">
<path d="M0 0H787L506 265H0V0Z" fill="#1B1B1B"/>
<path d="M261.153 180.453V180.453C261.154 181.429 261.168 182.366 261.181 183.276C261.211 185.275 261.239 187.145 261.119 189.02C261.036 190.313 261.296 191.351 262.104 192.032C262.882 192.688 264.053 192.911 265.525 192.892C270.113 192.834 274.701 192.852 279.293 192.87C280.922 192.876 282.552 192.882 284.182 192.885C285.756 192.888 286.974 192.89 287.897 192.805C288.811 192.721 289.542 192.544 290.065 192.107C290.608 191.655 290.838 191.003 290.947 190.203C291.055 189.41 291.057 188.367 291.057 187.045C291.06 153.961 291.052 120.877 291.041 87.793C291.041 87.6836 291.041 87.5737 291.041 87.4634C291.042 86.3648 291.043 85.2212 290.891 84.093C290.477 81.0259 289.203 78.4464 287.194 76.4986C285.188 74.5529 282.474 73.2612 279.215 72.723C272.935 71.6861 266.578 74.3236 263.158 79.4508C258.761 86.0419 254.368 92.6343 249.975 99.2267C239.211 115.379 228.447 131.53 217.634 147.659C216.923 148.721 216.256 149.79 215.594 150.85C214.014 153.383 212.466 155.864 210.417 158.07C210.068 157.977 209.857 157.834 209.703 157.683C209.544 157.528 209.441 157.366 209.311 157.162C209.263 157.086 209.212 157.005 209.152 156.917C205.454 151.399 201.755 145.883 198.055 140.366C184.652 120.38 171.25 100.394 157.913 80.3775C153.973 74.4636 147.914 71.5684 140.982 72.8215C137.525 73.4465 134.675 74.9556 132.686 77.1969C130.694 79.4407 129.594 82.3876 129.588 85.8329C129.558 102.093 129.554 118.349 129.55 134.604C129.545 152.753 129.541 170.902 129.5 189.055C129.497 190.51 129.83 191.614 130.732 192.305C131.598 192.969 132.873 193.156 134.487 193.12C140.968 192.976 147.457 192.872 153.906 193.159C155.989 193.251 157.451 193.003 158.365 192.161C159.289 191.309 159.511 189.982 159.495 188.338C159.355 173.446 159.388 158.554 159.421 143.658C159.427 140.578 159.434 137.497 159.439 134.417C159.44 134.136 159.423 133.873 159.406 133.621C159.363 132.961 159.325 132.376 159.619 131.749C159.736 131.913 159.847 132.07 159.956 132.222C160.41 132.861 160.798 133.406 161.167 133.966C163.769 137.926 166.373 141.884 168.977 145.843C177.754 159.188 186.53 172.532 195.266 185.895C196.881 188.365 198.778 190.496 201.203 192.009C203.633 193.524 206.564 194.401 210.216 194.402C213.832 194.403 216.765 193.58 219.219 192.113C221.669 190.648 223.612 188.556 225.275 186.061C232.353 175.446 239.548 164.885 246.744 154.322C248.821 151.272 250.899 148.222 252.975 145.17C254.895 142.346 256.846 139.539 258.799 136.728C259.584 135.598 260.369 134.468 261.153 133.336L261.153 180.453Z" fill="white" stroke="white"/>
<path d="M422.624 188.343L422.599 188.322L422.57 188.304C392.603 169.435 362.855 150.707 332.61 131.666L423.175 75.4405L423.753 75.0814L423.237 74.6369C421.75 73.3548 420.349 73.4352 419.272 73.497C419.054 73.5096 418.85 73.5213 418.66 73.5209C414.344 73.5103 410.031 73.515 405.718 73.5197C398.363 73.5277 391.01 73.5356 383.656 73.468C380.436 73.4384 377.874 74.2495 375.374 75.8663C366.423 81.6545 357.432 87.3982 348.439 93.1428C344.711 95.5244 340.983 97.9062 337.257 100.291C334.922 101.786 332.587 103.279 330.251 104.773C322.181 109.933 314.11 115.094 306.08 120.298C302.913 122.35 300.047 124.719 299.142 128.489C298.343 131.822 298.839 134.611 300.309 137.05C301.766 139.468 304.159 141.507 307.092 143.405C330.006 158.229 352.786 173.195 375.567 188.162C376.609 188.846 377.65 189.531 378.692 190.215C380.966 191.709 383.309 192.48 386.229 192.464C393.121 192.425 400.011 192.427 406.903 192.43C411.679 192.431 416.456 192.433 421.235 192.421C421.47 192.42 421.708 192.431 421.962 192.443C422.033 192.446 422.105 192.449 422.178 192.453C422.508 192.467 422.859 192.477 423.211 192.453C423.923 192.406 424.671 192.222 425.331 191.64L425.528 191.466L425.496 191.205C425.393 190.344 424.844 189.827 424.284 189.438C424.075 189.293 423.844 189.153 423.624 189.02C423.555 188.978 423.488 188.937 423.422 188.897C423.135 188.72 422.866 188.545 422.624 188.343Z" fill="white" stroke="white"/>
</svg>
