<svg width="298" height="123" viewBox="0 0 298 123" fill="none" xmlns="http://www.w3.org/2000/svg">
<path d="M134.158 7.45102C137.578 2.32384 143.935 -0.314322 150.215 0.722504C153.474 1.26069 156.188 2.5531 158.194 4.49887C160.202 6.4466 161.476 9.02575 161.891 12.0926C162.058 13.3342 162.041 14.5945 162.041 15.7928C162.053 48.8768 162.06 81.9608 162.057 115.045C162.057 116.367 162.056 117.409 161.947 118.203C161.838 119.003 161.608 119.655 161.065 120.107C160.542 120.544 159.811 120.72 158.897 120.805C157.974 120.89 156.756 120.888 155.183 120.886C148.956 120.874 142.741 120.814 136.525 120.892C135.053 120.911 133.882 120.688 133.104 120.032C132.297 119.35 132.035 118.312 132.118 117.02C132.293 114.292 132.155 111.574 132.153 108.453V61.3329C129.42 65.2806 126.668 69.2096 123.975 73.1698C114.712 86.7907 105.397 100.381 96.2754 114.061C94.6119 116.556 92.6685 118.647 90.2188 120.112C87.765 121.58 84.8314 122.402 81.2158 122.401C77.5636 122.4 74.632 121.524 72.2021 120.009C69.7776 118.496 67.8804 116.365 66.2656 113.894C54.9388 96.5675 43.5432 79.2718 32.167 61.9657C31.7112 61.2723 31.2258 60.6018 30.6201 59.7479C30.2116 60.6157 30.4411 61.4027 30.4395 62.4168C30.4089 80.3944 30.3262 98.3669 30.4951 116.338C30.5106 117.981 30.2892 119.309 29.3652 120.161C28.4516 121.003 26.9892 121.251 24.9062 121.158C18.4566 120.871 11.9678 120.976 5.48633 121.12C3.87227 121.156 2.59712 120.969 1.73145 120.306C0.829707 119.614 0.496731 118.51 0.5 117.055C0.577241 82.6431 0.524261 48.2467 0.587891 13.8329C0.594259 10.3876 1.69446 7.44092 3.68555 5.19711C5.67444 2.9559 8.52443 1.44617 11.9814 0.821136C18.9132 -0.432017 24.9727 2.46384 28.9131 8.37778C45.9308 33.9189 63.056 59.4103 80.1523 84.9168C80.3734 85.2467 80.4856 85.4703 80.7031 85.6834C80.8564 85.8337 81.0674 85.9745 81.4141 86.0672C84.3205 82.9378 86.2225 79.2573 88.6348 75.659C103.861 52.9474 118.989 30.191 134.158 7.45102Z" fill="white" stroke="white"/>
<path d="M254.656 1.46805C266.322 1.57534 277.983 1.49222 289.66 1.52078C290.786 1.52353 292.449 1.09526 294.238 2.63699L294.754 3.08133L294.174 3.4407C264.112 22.1042 234.165 40.6953 203.609 59.6653L293.57 116.304L293.598 116.322L293.625 116.343C293.867 116.545 294.135 116.721 294.421 116.897C294.698 117.067 295.009 117.248 295.284 117.439C295.844 117.827 296.393 118.344 296.497 119.204L296.528 119.465L296.331 119.64C295.671 120.222 294.923 120.406 294.212 120.453C293.859 120.477 293.508 120.466 293.178 120.452C292.841 120.438 292.535 120.42 292.235 120.421C280.559 120.451 268.898 120.398 257.228 120.464C254.309 120.481 251.966 119.708 249.692 118.214C225.869 102.563 202.053 86.9059 178.092 71.4046C175.159 69.5068 172.766 67.4676 171.309 65.0501C169.839 62.6111 169.343 59.8219 170.142 56.4886C171.046 52.7185 173.913 50.3503 177.08 48.2981C187.434 41.5875 197.857 34.9486 208.256 28.2913C220.969 20.1531 233.712 12.0543 246.374 3.86649C248.874 2.24971 251.437 1.43845 254.656 1.46805Z" fill="white" stroke="white"/>
</svg>
